<svg width="1213" height="256" viewBox="0 0 1213 256" fill="none" xmlns="http://www.w3.org/2000/svg">
<path d="M129.328 0.23966C58.6165 0.23966 1.32812 57.2884 1.32812 128C1.32812 198.712 58.6165 256 129.328 256C200.04 256 257.328 198.712 257.328 128C257.328 57.2884 200.04 0 129.328 0V0.23966ZM197.403 209.738L155.935 168.27C151.62 163.955 146.347 165.393 144.909 166.112C143.47 166.592 138.676 169.228 138.676 175.461V234.187H119.74V175.461C119.74 169.228 114.946 166.831 113.508 166.112C112.07 165.393 107.036 163.955 102.721 168.27L61.2532 209.738L47.83 196.315L104.16 139.985C117.583 126.562 140.834 126.562 154.257 139.985L210.587 196.315L197.163 209.738H197.403ZM197.882 137.828C182.302 137.828 168.879 128.959 162.886 114.337C161.208 110.022 160.489 105.948 160.249 101.633C150.422 105.708 139.875 107.625 129.328 107.625C118.781 107.625 107.515 105.468 97.2083 101.154C96.9686 105.468 96.2495 109.783 94.3319 114.097C88.3394 128.959 74.4367 138.067 58.6165 138.067H23.3806V119.131H58.6165C66.7663 119.131 73.7176 114.577 76.8337 106.906C79.9499 99.2359 78.2719 91.0861 72.5191 85.3333L47.5903 60.4045L61.0135 46.9813L84.5042 70.4719C86.1821 72.1498 88.3394 73.588 90.0173 75.0262C95.2907 78.1423 101.523 78.6217 107.276 76.2247C113.268 73.8277 119.5 67.5955 119.5 58.0074V22.7716H138.437V58.0074C138.437 67.8352 144.669 73.8277 150.661 76.2247C156.654 78.6217 162.646 78.1423 167.92 75.2659C169.837 73.8277 171.755 72.3895 173.673 70.7116L197.163 47.221L210.587 60.6442L184.22 87.0113C178.706 92.5244 177.029 100.195 180.145 107.625C183.261 114.816 189.733 119.371 197.643 119.371H234.796V138.307H197.643L197.882 137.828Z" fill="url(#paint0_linear_11443_6804)"/>
<path d="M1191.29 131.195C1191.29 116.711 1184.9 106.913 1169.13 106.913C1151.24 106.913 1139.74 117.776 1139.74 134.177V200.846H1118.87V92.216H1139.74V105.848H1140.17C1145.92 97.541 1157.21 89.021 1175.95 89.021C1195.97 89.021 1212.16 100.523 1212.16 125.444V200.846H1191.29V131.195Z" fill="white"/>
<path d="M1035.74 203.828C1014.02 203.828 1000.17 191.261 1000.17 172.73C1000.17 148.448 1018.49 141.206 1045.54 136.094C1062.58 132.899 1073.02 130.769 1073.02 120.119C1073.02 112.238 1068.33 105.635 1052.36 105.635C1033.4 105.635 1027.65 111.599 1026.58 126.083H1005.28C1006.35 105.209 1019.98 88.808 1053.21 88.808C1075.57 88.808 1093.47 98.18 1093.47 126.296V176.138C1093.47 184.019 1094.53 188.066 1098.58 188.066C1099.22 188.066 1099.86 188.066 1101.13 187.853V200.633C1097.51 201.485 1093.89 201.911 1090.48 201.911C1080.05 201.911 1074.51 197.864 1073.23 185.51H1072.8C1065.78 196.799 1053.42 203.828 1035.74 203.828ZM1021.9 171.239C1021.9 181.463 1027.44 187.001 1040.43 187.001C1059.17 187.001 1073.02 177.416 1073.02 158.459V142.91C1069.61 146.105 1060.24 148.448 1049.16 150.791C1029.99 154.625 1021.9 159.95 1021.9 171.239Z" fill="white"/>
<path d="M940.265 204.041C907.889 204.041 886.802 180.611 886.802 146.531C886.802 112.451 907.889 89.021 940.052 89.021C967.955 89.021 986.486 107.126 989.042 131.621H967.529C966.464 120.332 960.074 106.274 940.265 106.274C917.048 106.274 908.528 126.083 908.528 146.531C908.528 166.979 917.048 186.575 940.265 186.575C960.287 186.575 966.464 172.943 967.529 160.589H989.042C987.551 185.51 968.168 204.041 940.265 204.041Z" fill="white"/>
<path d="M819.093 203.828C780.54 203.828 753.489 183.806 751.785 149.513H776.067C777.771 169.961 789.912 183.806 818.454 183.806C842.949 183.806 850.404 173.156 850.404 159.311C850.404 139.928 835.494 137.159 807.804 130.13C783.948 123.74 757.749 116.072 757.749 87.104C757.749 60.692 778.197 45.569 810.999 45.569C845.718 45.569 868.296 63.248 870.639 93.92H846.357C843.801 75.602 833.364 65.591 811.212 65.591C792.042 65.591 782.244 72.62 782.244 85.826C782.244 102.866 798.219 106.487 817.815 111.386C847.209 118.841 874.899 125.87 874.899 158.033C874.899 184.232 857.22 203.828 819.093 203.828Z" fill="white"/>
<path d="M632.249 200.846V68.7859H583.046V48.5509H705.095V68.7859H655.892V200.846H632.249Z" fill="white"/>
<path d="M506.9 203.828C461.318 203.828 432.137 170.387 432.137 124.592C432.137 78.797 461.318 45.569 506.9 45.569C552.482 45.569 581.663 78.797 581.663 124.592C581.663 145.892 575.486 164.423 564.197 178.268L582.515 196.586L568.883 210.431L549.926 191.261C538.211 199.355 523.727 203.828 506.9 203.828ZM456.632 124.592C456.632 155.903 470.903 183.593 506.9 183.593C518.189 183.593 527.348 180.824 534.59 176.138L514.781 156.116L528.413 142.271L548.009 162.08C554.399 151.643 557.168 138.437 557.168 124.592C557.168 93.281 542.897 65.804 506.9 65.804C470.903 65.804 456.632 93.281 456.632 124.592Z" fill="white"/>
<path d="M362.308 203.828C323.755 203.828 296.704 183.806 295 149.513H319.282C320.986 169.961 333.127 183.806 361.669 183.806C386.164 183.806 393.619 173.156 393.619 159.311C393.619 139.928 378.709 137.159 351.019 130.13C327.163 123.74 300.964 116.072 300.964 87.104C300.964 60.692 321.412 45.569 354.214 45.569C388.933 45.569 411.511 63.248 413.854 93.92H389.572C387.016 75.602 376.579 65.591 354.427 65.591C335.257 65.591 325.459 72.62 325.459 85.826C325.459 102.866 341.434 106.487 361.03 111.386C390.424 118.841 418.114 125.87 418.114 158.033C418.114 184.232 400.435 203.828 362.308 203.828Z" fill="white"/>
<defs>
<linearGradient id="paint0_linear_11443_6804" x1="129.328" y1="-50" x2="129.328" y2="282" gradientUnits="userSpaceOnUse">
<stop stop-color="white"/>
<stop offset="0.595" stop-color="white"/>
<stop offset="0.797836" stop-color="#E968DD"/>
<stop offset="0.924818" stop-color="#385CE5"/>
</linearGradient>
</defs>
</svg>
